<?xml version="1.0" encoding="UTF-8"?>
<svg width="24px" height="24px" viewBox="0 0 24 24" version="1.1" xmlns="http://www.w3.org/2000/svg" xmlns:xlink="http://www.w3.org/1999/xlink">
    <!-- Generator: Sketch 46.1 (44463) - http://www.bohemiancoding.com/sketch -->
    <title>icon-received-arrow-blue</title>
    <desc>Created with Sketch.</desc>
    <defs></defs>
    <g id="icons" stroke="none" stroke-width="1" fill="none" fill-rule="evenodd">
        <g id="Artboard-2" transform="translate(-347.000000, -253.000000)" fill="#368ABB">
            <g id="icon-tab-received-arrow-blue" transform="translate(347.000000, 253.000000)">
                <path d="M1.2,21.7951807 L22.8,21.7951807 L22.8,16.8527575 C22.8,16.5215272 23.0783203,16.253012 23.4,16.253012 C23.7313708,16.253012 24,16.5209861 24,16.8527575 L24,22.2797726 C24,22.299645 23.9989982,22.3192917 23.9970453,22.3386681 C23.9989994,22.3581085 24,22.3777674 24,22.3975904 C24,22.730292 23.7304688,23 23.4067383,23 L0.593261719,23 C0.265612319,23 0,22.7205619 0,22.3975904 C0,22.3776981 0.00096353224,22.3580311 0.00284457166,22.3386334 C0.000962919231,22.319271 0,22.2996362 0,22.2797726 L0,16.8527575 C0,16.5215272 0.278320312,16.253012 0.6,16.253012 C0.93137085,16.253012 1.2,16.5209861 1.2,16.8527575 L1.2,21.7951807 Z M11.391461,15.0290868 L11.391461,3.59278096 C11.391461,3.26539707 11.6697813,3 11.991461,3 C12.3228318,3 12.591461,3.27130589 12.591461,3.59278096 L12.591461,15.0413139 L19.7493533,7.88342148 C19.9844293,7.64834549 20.3631891,7.64948469 20.5975037,7.88379927 C20.8249656,8.11126115 20.8319874,8.49784369 20.5978815,8.73194962 L12.5767552,16.7530759 C12.5153462,17.0184346 12.2696131,17.2168675 11.991461,17.2168675 C11.6999106,17.2168675 11.4569287,17.0068488 11.4027412,16.7374232 L3.39726754,8.73194962 C3.16316161,8.49784369 3.17018343,8.11126115 3.39764532,7.88379927 C3.6319599,7.64948469 4.01071968,7.64834549 4.24579567,7.88342148 L11.391461,15.0290868 Z" id="icon-received-arrow-blue"></path>
            </g>
        </g>
    </g>
</svg>