<?xml version="1.0" encoding="UTF-8"?>
<svg width="48px" height="48px" viewBox="0 0 48 48" version="1.1" xmlns="http://www.w3.org/2000/svg" xmlns:xlink="http://www.w3.org/1999/xlink">
    <!-- Generator: Sketch 43.1 (39012) - http://www.bohemiancoding.com/sketch -->
    <title>icon-alert-orange48</title>
    <desc>Created with Sketch.</desc>
    <defs></defs>
    <g id="fraud-phonelist-v1" stroke="none" stroke-width="1" fill="none" fill-rule="evenodd">
        <g id="UX-fraud-phoneslist-v1a-Copy-9" transform="translate(-488.000000, -258.000000)" fill="#F6A623">
            <g id="alert_2" transform="translate(309.000000, 223.000000)">
                <g id="icon-alert-orange48" transform="translate(179.000000, 35.000000)">
                    <path d="M19.9597848,4.82210467 C22.1169563,1.04654135 25.6258546,1.03434795 27.8055982,4.80953906 L47.0711111,38.1763035 C49.2470628,41.944927 47.4883087,45 43.1290522,45 L4.88607645,45 C0.532985787,45 -1.24378986,41.9334053 0.910013018,38.1637379 L19.9597848,4.82210467 Z M21.7923605,6.13647185 L3.40235405,38.8734087 C2.23443876,40.952471 3.22756504,42.644706 5.62529099,42.644706 L42.435509,42.644706 C44.8367452,42.644706 45.8184583,40.9562387 44.636067,38.8734087 L26.0517993,6.13647185 C24.8643058,4.04465418 22.9623922,4.05364187 21.7923605,6.13647185 Z M22.7209121,15.9526609 C22.7209121,15.3077569 23.2409566,14.7849589 23.8925402,14.7849589 C24.5396125,14.7849589 25.0641682,15.3126559 25.0641682,15.9637545 L25.0641682,21.4501452 L25.0641682,29.4841576 C25.0641682,30.1363534 24.5441238,30.6650626 23.8925402,30.6650626 C23.2454679,30.6650626 22.7209121,30.1367031 22.7209121,29.4973607 L22.7209121,15.9526609 Z M22.7209121,34.091967 C22.7209121,33.4451066 23.2409566,32.9207227 23.8925402,32.9207227 C24.5396125,32.9207227 25.0641682,33.4423836 25.0641682,34.091967 L25.0641682,37.4021841 C25.0641682,38.0490444 24.5441238,38.5734283 23.8925402,38.5734283 C23.2454679,38.5734283 22.7209121,38.0517675 22.7209121,37.4021841 L22.7209121,34.091967 Z"></path>
                </g>
            </g>
        </g>
    </g>
</svg>