<?xml version="1.0" encoding="UTF-8"?>
<svg width="24px" height="24px" viewBox="0 0 24 24" version="1.1" xmlns="http://www.w3.org/2000/svg" xmlns:xlink="http://www.w3.org/1999/xlink">
    <!-- Generator: Sketch 46.1 (44463) - http://www.bohemiancoding.com/sketch -->
    <title>icon-sent-arrow-blue</title>
    <desc>Created with Sketch.</desc>
    <defs></defs>
    <g id="icons" stroke="none" stroke-width="1" fill="none" fill-rule="evenodd">
        <g id="Artboard-2" transform="translate(-319.000000, -253.000000)" fill="#000000">
            <g id="icon-tab-sent-arrow" transform="translate(319.000000, 253.000000)">
                <path d="M12.1758753,3.02912926 C12.2754015,3.05524385 12.3695148,3.10737283 12.4475576,3.1854156 C12.4972556,3.23511364 12.5364102,3.29242788 12.5648089,3.35410493 L20.6069925,11.3962885 C20.8416191,11.6309151 20.8350194,12.0179198 20.6075576,12.2453817 C20.373243,12.4796963 19.9940632,12.4804155 19.7584643,12.2448166 L12.591461,5.07781324 L12.591461,16.6543911 C12.591461,16.9825032 12.3131407,17.2484906 11.991461,17.2484906 C11.6600901,17.2484906 11.391461,16.9765813 11.391461,16.6543911 L11.391461,5.09004032 L4.23668468,12.2448166 C4.0010858,12.4804155 3.62190604,12.4796963 3.38759146,12.2453817 C3.16012957,12.0179198 3.15352988,11.6309151 3.38815654,11.3962885 L11.4303401,3.35410493 C11.4587388,3.29242788 11.4978934,3.23511364 11.5475915,3.1854156 C11.6072223,3.12578477 11.6762354,3.08128284 11.7498765,3.05195469 C11.8244871,3.01857198 11.9064603,3 11.991461,3 C12.0558,3 12.1177738,3.01025049 12.1758753,3.02912926 Z M1.2,21.7925008 L22.8,21.7925008 L22.8,16.839084 C22.8,16.5071169 23.0783203,16.2380044 23.4,16.2380044 C23.7313708,16.2380044 24,16.5065746 24,16.839084 L24,22.2781706 C24,22.2981879 23.998988,22.3179767 23.9970156,22.3374918 C23.9989894,22.3568794 24,22.3764835 24,22.3962504 C24,22.7296921 23.7304687,23 23.3947349,23 L0.605265096,23 C0.270986414,23 0,22.7199404 0,22.3962504 C0,22.3763184 0.000963094997,22.3566121 0.00284585511,22.3371756 C0.000963357094,22.3177658 0,22.2980828 0,22.2781706 L0,16.839084 C0,16.5071169 0.278320312,16.2380044 0.6,16.2380044 C0.93137085,16.2380044 1.2,16.5065746 1.2,16.839084 L1.2,21.7925008 Z" id="icon-sent-arrow-blue"></path>
            </g>
        </g>
    </g>
</svg>